<svg xmlns="http://www.w3.org/2000/svg" viewBox="0 0 64 64">
  <rect width="64" height="64" rx="14" fill="#2f67ff" />
  <path
    fill="#ffffff"
    d="M20 23.5c3.4-2.5 7.3-3.7 12-3.7s8.6 1.2 12 3.7c2.8 5.9 3.6 11.7 2.6 17.4-3.7 2.7-7.3 4.2-10.8 4.7l-1.4-3.1c-1.6.3-3.2.3-4.8 0l-1.4 3.1c-3.5-.5-7.1-2-10.8-4.7-1-5.7-.2-11.5 2.6-17.4Zm8.1 10.3c0-1.9-1.2-3.3-2.8-3.3s-2.8 1.4-2.8 3.3 1.2 3.3 2.8 3.3 2.8-1.4 2.8-3.3Zm13.4 0c0-1.9-1.2-3.3-2.8-3.3s-2.8 1.4-2.8 3.3 1.2 3.3 2.8 3.3 2.8-1.4 2.8-3.3Z"
  />
</svg>
